<?xml version="1.0" encoding="UTF-8"?>
<!-- Generator: Adobe Illustrator 18.1.0, SVG Export Plug-In . SVG Version: 6.00 Build 0)  -->
<!DOCTYPE svg PUBLIC "-//W3C//DTD SVG 1.1//EN" "http://www.w3.org/Graphics/SVG/1.1/DTD/svg11.dtd">
<svg version="1.1" id="Layer_1" xmlns="http://www.w3.org/2000/svg" xmlns:xlink="http://www.w3.org/1999/xlink" x="0px" y="0px" viewBox="0 0 158 20" enable-background="new 0 0 158 20" xml:space="preserve">
<g>
	<path fill="#231F20" d="M10,5.8l-0.2,4.3H9c-3,0-4.7,1.6-4.7,5.1v4.3H0V5.9h4.3v2.6c1-1.6,2.5-2.8,4.7-2.8C9.4,5.7,9.7,5.7,10,5.8z   "/>
	<path fill="#231F20" d="M25.8,13.8h-10c0.4,1.6,1.5,2.6,2.9,2.6c1,0,2.2-0.2,2.9-1.6l3.8,0.8c-1.2,2.9-3.6,4.3-6.7,4.3   c-3.9,0-7.2-2.9-7.2-7.2c0-4.3,3.3-7.2,7.2-7.2c3.8,0,6.9,2.8,7,7.2V13.8z M15.9,11.2h5.6C21.1,9.7,20.1,9,18.8,9   C17.6,9,16.3,9.8,15.9,11.2z"/>
	<path fill="#231F20" d="M43.1,19.5h-4.3v-1.1c-1.1,0.9-2.5,1.5-4.2,1.5c-3.6,0-6.6-2.9-6.6-7.2c0-4.3,3-7.2,6.6-7.2   c1.8,0,3.2,0.5,4.2,1.5V0h4.3V19.5z M38.8,12.7c0-2.1-1.6-3.5-3.3-3.5c-1.9,0-3.3,1.4-3.3,3.5c0,2.1,1.4,3.5,3.3,3.5   C37.2,16.2,38.8,14.8,38.8,12.7z"/>
	<path fill="#231F20" d="M61.3,19.5h-4.3v-1.1c-1.1,0.9-2.5,1.5-4.2,1.5c-3.6,0-6.6-2.9-6.6-7.2c0-4.3,3-7.2,6.6-7.2   c1.8,0,3.2,0.5,4.2,1.5V5.9h4.3V19.5z M56.9,12.7c0-2.1-1.6-3.5-3.3-3.5c-1.9,0-3.3,1.4-3.3,3.5c0,2.1,1.4,3.5,3.3,3.5   C55.4,16.2,56.9,14.8,56.9,12.7z"/>
	<path fill="#231F20" d="M78.8,11.2v8.3h-4.3v-7.4c0-1.6-0.9-2.7-2.3-2.7c-1.7,0-2.8,1.2-2.8,3.8v6.3H65V5.9h4.3v1.3   c1-1.1,2.5-1.7,4.2-1.7C76.7,5.5,78.8,7.7,78.8,11.2z"/>
	<path fill="#231F20" d="M96.8,19.5h-4.3v-1.1c-1.1,0.9-2.5,1.5-4.2,1.5c-3.6,0-6.6-2.9-6.6-7.2c0-4.3,3-7.2,6.6-7.2   C90,5.5,91.4,6,92.5,7V0h4.3V19.5z M92.5,12.7c0-2.1-1.6-3.5-3.3-3.5c-1.9,0-3.3,1.4-3.3,3.5c0,2.1,1.4,3.5,3.3,3.5   C90.9,16.2,92.5,14.8,92.5,12.7z"/>
	<path fill="#231F20" d="M115.7,12.7c0,4.3-3,7.2-6.6,7.2c-1.8,0-3.2-0.5-4.2-1.5v1.1h-4.3V0h4.3v7c1.1-0.9,2.5-1.5,4.2-1.5   C112.7,5.5,115.7,8.4,115.7,12.7z M111.5,12.7c0-2.1-1.4-3.5-3.3-3.5c-1.8,0-3.3,1.4-3.3,3.5c0,2.1,1.6,3.5,3.3,3.5   C110.1,16.2,111.5,14.8,111.5,12.7z"/>
	<path fill="#231F20" d="M118.7,19.5V0h4.3v19.5H118.7z"/>
	<path fill="#231F20" d="M140.4,19.5H136v-1.3c-1,1.1-2.5,1.7-4.2,1.7c-3.2,0-5.3-2.2-5.3-5.7V5.9h4.3v7.4c0,1.6,0.9,2.7,2.3,2.7   c1.7,0,2.8-1.2,2.8-3.8V5.9h4.3V19.5z"/>
	<path fill="#231F20" d="M157.5,13.8h-10c0.4,1.6,1.5,2.6,2.9,2.6c1,0,2.2-0.2,2.9-1.6l3.8,0.8c-1.2,2.9-3.6,4.3-6.7,4.3   c-3.9,0-7.2-2.9-7.2-7.2c0-4.3,3.3-7.2,7.2-7.2c3.8,0,6.9,2.8,7,7.2V13.8z M147.6,11.2h5.6c-0.4-1.5-1.5-2.1-2.7-2.1   C149.3,9,148,9.8,147.6,11.2z"/>
</g>
<g>
</g>
<g>
</g>
<g>
</g>
<g>
</g>
<g>
</g>
<g>
</g>
</svg>